Coordinates
version=1
nRows=7
nColumns=46
inDegrees=yes

Units are S.I. units (second, meters, Newtons, ...)
Angles are in degrees.

endheader
time	pelvis_tilt	pelvis_list	pelvis_rotation	pelvis_tx	pelvis_ty	pelvis_tz	bb_angle	bb_tx	bb_ty	bb_tz	hip_flexion_r	hip_adduction_r	hip_rotation_r	knee_angle_r	knee_angle_r_beta	ankle_angle_r	subtalar_angle_r	mtp_angle_r	crank_angle_r	hip_flexion_l	hip_adduction_l	hip_rotation_l	knee_angle_l	knee_angle_l_beta	ankle_angle_l	subtalar_angle_l	mtp_angle_l	crank_angle_l	lumbar_extension	lumbar_bending	lumbar_rotation	arm_flex_r	arm_add_r	arm_rot_r	elbow_flex_r	pro_sup_r	wrist_flex_r	wrist_dev_r	arm_flex_l	arm_add_l	arm_rot_l	elbow_flex_l	pro_sup_l	wrist_flex_l	wrist_dev_l
      5.00500000	     -7.56047573	     -1.47074724	     -1.25687972	      0.10344736	      1.15581778	     -0.24046329	      0.00000000	      0.50000000	      0.00000000	      0.25000000	     86.54237169	     -8.17770024	      2.10958134	    116.46029771	      2.03261564	      6.08235300	     -5.80098426	      0.00000000	      0.00000000	     37.45994865	    -11.81642329	    -14.74070390	     38.07840154	      0.66459348	      0.13672436	     18.29554737	      0.00000000	      0.00000000	    -62.33297836	      5.97735890	      9.44646033	     89.72705355	    -23.61699710	     38.67697881	     54.91769367	     26.76049070	      0.00000000	      0.00000000	     88.94275935	     -9.34841195	     39.09911990	     33.18550329	     23.64847010	      0.00000000	      0.00000000
      5.01000000	     -7.60935439	     -1.56125846	     -1.68618043	      0.10351410	      1.15679976	     -0.24135602	      0.00000000	      0.50000000	      0.00000000	      0.25000000	     87.48728271	     -7.58934571	      2.24545612	    116.23753480	      2.02872770	      5.93206489	     -5.62648294	      0.00000000	      0.00000000	     37.08127765	    -12.20404143	    -15.14080205	     38.53978466	      0.67264614	     -0.39316727	     18.15603104	      0.00000000	      0.00000000	    -62.40158734	      6.17870833	      9.56458706	     89.73113045	    -23.00901005	     38.66310743	     55.09977729	     26.73124895	      0.00000000	      0.00000000	     88.93838378	     -9.67154187	     39.07214163	     32.87672751	     23.65357767	      0.00000000	      0.00000000
      5.01500000	     -7.66341018	     -1.67322945	     -2.05980625	      0.10351400	      1.15780778	     -0.24218870	      0.00000000	      0.50000000	      0.00000000	      0.25000000	     88.32856964	     -7.11715084	      2.27627142	    115.87594530	      2.02241677	      5.76311431	     -5.42981040	      0.00000000	      0.00000000	     36.84267884	    -12.59584829	    -15.41545136	     39.19897489	      0.68415118	     -0.88305039	     17.95010379	      0.00000000	      0.00000000	    -62.48606486	      6.40868476	      9.65605044	     89.73696276	    -22.36837326	     38.62214734	     55.19196010	     26.67975329	      0.00000000	      0.00000000	     88.93764004	     -9.99169249	     39.05406820	     32.59903997	     23.66534953	      0.00000000	      0.00000000
      5.02000000	     -7.63604717	     -1.70624427	     -2.30313566	      0.10337166	      1.15885216	     -0.24301574	      0.00000000	      0.50000000	      0.00000000	      0.25000000	     88.96852255	     -6.70455132	      2.38219494	    115.42787470	      2.01459646	      5.67376457	     -5.26420933	      0.00000000	      0.00000000	     36.67283910	    -12.85146263	    -15.52172037	     40.05609733	      0.69911078	     -1.36532857	     17.66721622	      0.00000000	      0.00000000	    -62.62853813	      6.63677600	      9.70929017	     89.74551499	    -21.88151843	     38.58853877	     55.27892862	     26.65091547	      0.00000000	      0.00000000	     88.97135717	    -10.17258243	     39.05323514	     32.44231936	     23.67440339	      0.00000000	      0.00000000
      5.02500000	     -7.79117271	     -1.78141937	     -2.65479339	      0.10329306	      1.15964599	     -0.24362306	      0.00000000	      0.50000000	      0.00000000	      0.25000000	     89.62743170	     -6.18377049	      2.39803163	    114.77251393	      2.00315826	      5.66809720	     -5.06327666	      0.00000000	      0.00000000	     36.82025182	    -13.24315363	    -15.64562544	     41.13881348	      0.71800775	     -1.82371432	     17.18153420	      0.00000000	      0.00000000	    -62.61894336	      6.83398370	      9.76478055	     89.74818437	    -21.26178742	     38.50116811	     55.38704418	     26.61106871	      0.00000000	      0.00000000	     88.99104945	    -10.52510495	     39.04861051	     32.23398399	     23.68159520	      0.00000000	      0.00000000
      5.03000000	     -7.91846500	     -1.81790394	     -2.93857152	      0.10309030	      1.16038778	     -0.24406765	      0.00000000	      0.50000000	      0.00000000	      0.25000000	     90.13302855	     -5.72013401	      2.41789671	    114.01791755	      1.98998807	      5.78507659	     -4.85561135	      0.00000000	      0.00000000	     37.09795132	    -13.59662051	    -15.65724271	     42.43931594	      0.74070580	     -2.33568802	     16.67254888	      0.00000000	      0.00000000	    -62.62913852	      6.98522397	      9.76077746	     89.75398780	    -20.69139322	     38.38846434	     55.44491366	     26.56593689	      0.00000000	      0.00000000	     89.03716236	    -10.78222361	     39.06786486	     32.12013863	     23.70080191	      0.00000000	      0.00000000
      5.03500000	     -8.50142883	     -2.09204689	     -3.08315871	      0.10248975	      1.16031651	     -0.24467131	      0.00000000	      0.50000000	      0.00000000	      0.25000000	     90.85342999	     -5.35248279	      2.10986636	    113.00140595	      1.97224659	      6.01749024	     -4.75144456	      0.00000000	      0.00000000	     38.16639404	    -13.99607637	    -15.04352127	     44.00433154	      0.76802047	     -2.69154851	     15.78120946	      0.00000000	      0.00000000	    -62.21683200	      7.56252128	      9.75661336	     89.75689010	    -19.23099205	     37.69934624	     54.91860511	     26.20929715	      0.00000000	      0.00000000	     88.97049633	    -11.58824349	     39.34712342	     32.04230012	     23.88206777	      0.00000000	      0.00000000
